<svg xmlns="http://www.w3.org/2000/svg" id="Layer_2" data-name="Layer 2" viewBox="0 0 323.39 85.17"><defs><style>      .cls-1 {        fill: #00733d;        fill-rule: evenodd;      }      .cls-2 {        fill: #000001;      }    </style></defs><g id="Layer_1-2" data-name="Layer 1"><path class="cls-2" d="m316.31,35.53c-.89-1.3-2.06-1.95-3.51-1.95s-2.62.64-3.51,1.93c-.89,1.29-1.33,2.97-1.33,5.05s.44,3.76,1.33,5.03c.89,1.27,2.06,1.91,3.51,1.91s2.59-.64,3.49-1.93c.9-1.29,1.36-2.93,1.36-4.93,0-2.11-.44-3.81-1.33-5.11m-2.2-6.76c2.79,0,5.04,1.12,6.73,3.37,1.7,2.24,2.55,5.05,2.55,8.42s-.88,6.17-2.65,8.4c-1.77,2.23-3.98,3.35-6.63,3.35s-4.79-1.2-6.16-3.61v11.58h-5.75v-31.13h5.75v3.29c1.37-2.44,3.42-3.66,6.16-3.66Zm-14.26,22.55h-5.75v-2.63c-1.59,2.38-3.81,3.57-6.65,3.57-2.35,0-4.18-.67-5.48-2.01-1.3-1.34-1.95-3.23-1.95-5.67v-15.44h5.75v14.25c0,2.66,1.23,3.98,3.7,3.98,1.4,0,2.52-.4,3.37-1.19s1.27-1.85,1.27-3.16v-13.88h5.75v22.18Zm-31.59-17.9c-1.56,0-2.82.66-3.78,1.97-.96,1.31-1.44,3.03-1.44,5.13s.48,3.82,1.44,5.13c.96,1.31,2.22,1.97,3.78,1.97s2.79-.65,3.76-1.95c.97-1.3,1.46-2.99,1.46-5.07,0-2.19-.47-3.94-1.42-5.24-.94-1.3-2.21-1.95-3.8-1.95Zm-.04-4.64c3.48,0,6.18,1.05,8.11,3.14,1.93,2.09,2.89,5.02,2.89,8.77s-.99,6.38-2.96,8.46c-1.97,2.08-4.64,3.12-8.01,3.12s-6.11-1.05-8.05-3.14c-1.94-2.09-2.92-4.96-2.92-8.6s.97-6.51,2.92-8.6c1.94-2.09,4.61-3.14,8.01-3.14Zm-22.43.37h5.75v4.35c.6-1.51,1.45-2.67,2.55-3.49,1.1-.82,2.3-1.23,3.61-1.23.25,0,.48.01.7.04v5.83c-.68-.11-1.29-.16-1.81-.16-3.37,0-5.05,1.68-5.05,5.05v11.79h-5.75v-22.18Zm-12.74,4.44c-1.4,0-2.53.66-3.39,1.97-.86,1.31-1.29,3.03-1.29,5.13,0,2,.42,3.63,1.27,4.89.85,1.26,1.96,1.89,3.33,1.89,1.51,0,2.73-.63,3.68-1.89.94-1.26,1.42-2.89,1.42-4.89s-.47-3.75-1.42-5.09c-.94-1.34-2.14-2.01-3.59-2.01Zm4.93-4.44h5.46v22.92c0,2.6-.92,4.62-2.77,6.06-1.85,1.44-4.44,2.16-7.78,2.16-2.96,0-5.32-.57-7.1-1.7-1.78-1.14-2.68-2.66-2.71-4.58h5.95c.47,1.72,1.82,2.59,4.07,2.59,1.45,0,2.63-.42,3.53-1.25.9-.84,1.36-1.92,1.36-3.26v-3c-1.07,1.2-2.06,2.04-2.98,2.51-.92.47-2.02.7-3.31.7-2.74,0-4.93-1.05-6.59-3.16-1.66-2.11-2.48-4.89-2.48-8.34s.88-6.28,2.63-8.56c1.75-2.29,3.94-3.43,6.57-3.43,2.46,0,4.52,1.26,6.16,3.78v-3.41Zm-34.09,8.62c0-2.74-1.18-4.11-3.53-4.11-1.29,0-2.35.41-3.18,1.23-.84.82-1.25,1.86-1.25,3.12v13.31h-5.75v-29.94h5.75v10.96c1.59-2.38,3.75-3.57,6.49-3.57.88,0,1.7.12,2.48.35.78.23,1.55.62,2.3,1.15.75.53,1.35,1.33,1.79,2.4.44,1.07.66,2.33.66,3.78v14.87h-5.75v-13.55Zm-24.15-4.35c-3.12,0-4.68,2.42-4.68,7.27,0,2.16.42,3.86,1.25,5.09.84,1.23,1.98,1.85,3.43,1.85,1.12,0,2-.31,2.63-.92.63-.62,1.12-1.64,1.48-3.06h5.5c-.27,2.66-1.28,4.76-3.02,6.3-1.74,1.55-3.95,2.32-6.63,2.32-3.29,0-5.84-1.01-7.66-3.04-1.82-2.03-2.73-4.87-2.73-8.54s.92-6.71,2.75-8.79c1.83-2.08,4.41-3.12,7.72-3.12,2.76,0,5,.77,6.71,2.3,1.71,1.53,2.66,3.65,2.85,6.37h-5.5c-.33-1.45-.8-2.48-1.42-3.1-.62-.62-1.51-.92-2.69-.92Zm-21.9-4.27h5.75v4.35c.6-1.51,1.45-2.67,2.55-3.49,1.1-.82,2.3-1.23,3.61-1.23.25,0,.48.01.7.04v5.83c-.68-.11-1.29-.16-1.81-.16-3.37,0-5.05,1.68-5.05,5.05v11.79h-5.75v-22.18Zm-7.73,13.26v-1.56c-.52.25-1.33.48-2.42.7l-1.97.37c-1.2.25-2.05.6-2.55,1.07-.49.47-.74,1.12-.74,1.97s.28,1.47.84,1.95c.56.48,1.32.72,2.28.72,1.45,0,2.57-.45,3.37-1.36.79-.9,1.19-2.19,1.19-3.86Zm-6.69,9.86c-2.03,0-3.65-.61-4.89-1.83-1.23-1.22-1.85-2.83-1.85-4.83,0-3.92,2.18-6.24,6.53-6.98l2.3-.41c.06,0,.33-.03.82-.1.49-.07.81-.12.94-.16.14-.04.4-.1.8-.18.4-.08.68-.18.84-.29.16-.11.36-.25.6-.43.23-.18.39-.38.47-.62.08-.23.12-.5.12-.8,0-1.48-1.11-2.22-3.33-2.22-1.42,0-2.42.22-3,.66-.58.44-.93,1.23-1.07,2.38h-5.54c.36-5.12,3.52-7.68,9.49-7.68s9.08,2.27,9.08,6.82v12.32c0,1.01.44,1.92,1.31,2.71v.7h-6.24c-.44-.55-.66-1.29-.66-2.22-2.03,2.11-4.27,3.16-6.73,3.16Zm-39.23-23.12h5.71v2.75c.96-1.12,1.9-1.92,2.81-2.4.92-.48,2.01-.72,3.26-.72,2.9,0,4.91,1.1,6.04,3.29,1.64-2.19,3.81-3.29,6.49-3.29,2.22,0,3.95.6,5.19,1.81,1.25,1.2,1.87,2.89,1.87,5.05v15.69h-5.75v-14.78c0-.88-.28-1.57-.84-2.09-.56-.52-1.32-.78-2.28-.78-1.23,0-2.2.38-2.9,1.15-.7.77-1.05,1.83-1.05,3.2v13.31h-5.75v-14.78c0-.88-.28-1.57-.84-2.09-.56-.52-1.32-.78-2.28-.78-1.23,0-2.2.38-2.9,1.15-.7.77-1.05,1.83-1.05,3.2v13.31h-5.75v-22.18Z"></path><path class="cls-1" d="m67.89,35.45l11.19,11.19-26.02,26.02-11.19-11.19,26.02-26.02Zm17.28,17.25V0H0v76.4l41.05-41.05,11.19,11.19L13.62,85.17h71.55v-10.09l-15.03-15.03,11.19-11.19,3.83,3.83Z"></path><path class="cls-2" d="m321.27,73.04h.82v3.57c0,.62-.07,1.11-.21,1.48-.14.36-.39.66-.76.89-.37.23-.85.34-1.44.34s-1.05-.1-1.42-.3c-.37-.2-.63-.49-.79-.87-.16-.38-.24-.89-.24-1.55v-3.57h.82v3.56c0,.54.05.93.15,1.19.1.25.27.45.51.59.24.14.54.21.89.21.6,0,1.02-.14,1.28-.41.25-.27.38-.8.38-1.57v-3.56Zm-8.7,3.64h2.1l-.64-1.71c-.19-.52-.34-.95-.44-1.29-.08.4-.2.8-.34,1.19l-.68,1.81Zm-1.78,2.53l2.37-6.17h.9l2.51,6.17h-.93l-.71-1.87h-2.6l-.67,1.87h-.87Zm-4.29-.72h1.54c.26,0,.45-.01.56-.03.19-.03.35-.09.47-.17.13-.08.23-.19.31-.34.08-.15.12-.32.12-.52,0-.23-.06-.43-.18-.6-.12-.17-.28-.29-.49-.36-.21-.07-.51-.1-.9-.1h-1.43v2.13Zm0-2.85h1.34c.36,0,.62-.02.78-.07.21-.06.37-.17.47-.31.1-.14.16-.32.16-.54,0-.21-.05-.39-.15-.54-.1-.16-.24-.26-.42-.32-.18-.06-.5-.09-.94-.09h-1.23v1.87Zm-.82,3.58v-6.17h2.32c.47,0,.85.06,1.14.19.28.12.51.32.67.58.16.26.24.53.24.81,0,.26-.07.51-.21.74-.14.23-.36.42-.65.56.37.11.66.3.86.56.2.26.3.57.3.93,0,.29-.06.56-.18.81-.12.25-.27.44-.45.57-.18.13-.41.24-.68.3-.27.07-.6.1-1,.1h-2.36Zm-5.19,0v-6.17h4.16v.72h-3.35v1.92h2.9v.72h-2.9v2.8h-.82Zm-5.78,0v-6.17h4.46v.72h-3.64v1.9h3.41v.72h-3.41v2.1h3.79v.72h-4.6Zm-2.27,0v-6.17h.82v6.17h-.82Zm-3.84,0v-5.45h-2.03v-.72h4.89v.72h-2.04v5.45h-.82Zm-5.92,1.81v-8.09h.66v8.09h-.66Zm-8.72-1.81v-6.17h.82v2.54h3.19v-2.54h.82v6.17h-.82v-2.91h-3.19v2.91h-.82Zm-1.86-2.17l.82.21c-.17.67-.48,1.18-.92,1.53-.44.35-.99.53-1.63.53s-1.2-.14-1.62-.41c-.42-.27-.73-.66-.95-1.18-.22-.51-.33-1.07-.33-1.65,0-.64.12-1.2.37-1.68.25-.48.6-.84,1.05-1.09s.95-.37,1.49-.37c.62,0,1.14.16,1.56.47.42.31.71.76.88,1.32l-.8.19c-.14-.45-.35-.78-.62-.98-.27-.21-.61-.31-1.03-.31-.47,0-.87.11-1.19.34-.32.23-.54.53-.67.92-.13.38-.19.78-.19,1.19,0,.52.08.98.23,1.37.15.39.39.68.71.88.32.19.67.29,1.04.29.46,0,.84-.13,1.16-.4.32-.26.53-.66.64-1.18Zm-6.58-4.01h.82v3.57c0,.62-.07,1.11-.21,1.48-.14.36-.39.66-.76.89-.37.23-.85.34-1.44.34s-1.05-.1-1.42-.3c-.37-.2-.63-.49-.79-.87-.16-.38-.24-.89-.24-1.55v-3.57h.82v3.56c0,.54.05.93.15,1.19.1.25.27.45.51.59.24.14.54.21.89.21.6,0,1.02-.14,1.28-.41.25-.27.38-.8.38-1.57v-3.56Zm-9.43,2.72h1.75c.37,0,.66-.04.87-.12.21-.08.37-.2.48-.37.11-.17.16-.35.16-.55,0-.29-.1-.53-.32-.72-.21-.19-.54-.28-1-.28h-1.95v2.04Zm-.82,3.45v-6.17h2.74c.55,0,.97.06,1.25.17.29.11.51.31.69.59.17.28.26.59.26.93,0,.44-.14.81-.43,1.11-.28.3-.72.49-1.31.57.22.1.38.21.49.31.24.22.46.49.68.82l1.07,1.68h-1.02l-.82-1.28c-.24-.37-.43-.66-.59-.85-.16-.2-.29-.33-.42-.41-.12-.08-.25-.13-.37-.16-.09-.02-.24-.03-.45-.03h-.95v2.74h-.82Zm-4.98-.72h1.54c.26,0,.45-.01.56-.03.19-.03.34-.09.47-.17.13-.08.23-.19.31-.34.08-.15.12-.32.12-.52,0-.23-.06-.43-.18-.6-.12-.17-.28-.29-.49-.36-.21-.07-.51-.1-.9-.1h-1.43v2.13Zm0-2.85h1.34c.36,0,.62-.02.78-.07.21-.06.37-.17.47-.31.1-.14.16-.32.16-.54,0-.21-.05-.39-.15-.54-.1-.16-.24-.26-.42-.32-.18-.06-.5-.09-.94-.09h-1.23v1.87Zm-.82,3.58v-6.17h2.32c.47,0,.85.06,1.14.19.28.12.51.32.67.58.16.26.24.53.24.81,0,.26-.07.51-.21.74-.14.23-.36.42-.65.56.37.11.66.3.86.56.2.26.3.57.3.93,0,.29-.06.56-.18.81s-.27.44-.45.57c-.18.13-.41.24-.68.3-.27.07-.6.1-1,.1h-2.36Zm-4.93-.72h1.54c.26,0,.45-.01.56-.03.19-.03.35-.09.47-.17.13-.08.23-.19.31-.34.08-.15.12-.32.12-.52,0-.23-.06-.43-.18-.6-.12-.17-.28-.29-.49-.36-.21-.07-.51-.1-.9-.1h-1.43v2.13Zm0-2.85h1.34c.36,0,.62-.02.78-.07.21-.06.37-.17.47-.31.1-.14.16-.32.16-.54,0-.21-.05-.39-.15-.54-.1-.16-.24-.26-.42-.32-.18-.06-.5-.09-.94-.09h-1.23v1.87Zm-.82,3.58v-6.17h2.32c.47,0,.85.06,1.14.19.28.12.51.32.67.58.16.26.24.53.24.81,0,.26-.07.51-.21.74-.14.23-.36.42-.65.56.37.11.66.3.86.56.2.26.3.57.3.93,0,.29-.06.56-.18.81-.12.25-.27.44-.45.57-.18.13-.41.24-.68.3-.27.07-.6.1-1,.1h-2.36Zm-4.62-2.53h2.1l-.64-1.71c-.19-.52-.34-.95-.44-1.29-.08.4-.2.8-.34,1.19l-.68,1.81Zm-1.78,2.53l2.37-6.17h.9l2.51,6.17h-.93l-.71-1.87h-2.6l-.67,1.87h-.87Zm-3.35,1.81v-8.09h.66v8.09h-.66Zm-4.71-7.98h.82v3.57c0,.62-.07,1.11-.21,1.48-.14.36-.39.66-.76.89-.37.23-.85.34-1.44.34s-1.05-.1-1.42-.3c-.37-.2-.63-.49-.79-.87-.16-.38-.24-.89-.24-1.55v-3.57h.82v3.56c0,.54.05.93.15,1.19.1.25.27.45.51.59.24.14.54.21.89.21.6,0,1.02-.14,1.28-.41.25-.27.38-.8.38-1.57v-3.56Zm-8.7,3.64h2.1l-.64-1.71c-.19-.52-.34-.95-.44-1.29-.08.4-.2.8-.34,1.19l-.68,1.81Zm-1.78,2.53l2.37-6.17h.9l2.51,6.17h-.93l-.71-1.87h-2.6l-.67,1.87h-.87Zm-4.29-.72h1.54c.26,0,.45-.01.56-.03.19-.03.35-.09.47-.17.13-.08.23-.19.31-.34.08-.15.12-.32.12-.52,0-.23-.06-.43-.18-.6-.12-.17-.28-.29-.49-.36-.21-.07-.51-.1-.9-.1h-1.43v2.13Zm0-2.85h1.34c.36,0,.62-.02.78-.07.21-.06.37-.17.47-.31.1-.14.16-.32.16-.54,0-.21-.05-.39-.15-.54-.1-.16-.24-.26-.42-.32-.18-.06-.5-.09-.94-.09h-1.23v1.87Zm-.82,3.58v-6.17h2.32c.47,0,.85.06,1.14.19.28.12.51.32.67.58.16.26.24.53.24.81,0,.26-.07.51-.21.74-.14.23-.36.42-.65.56.37.11.66.3.86.56.2.26.3.57.3.93,0,.29-.06.56-.18.81-.12.25-.27.44-.45.57-.18.13-.4.24-.68.3-.27.07-.6.1-1,.1h-2.36Zm-6.2,0v-6.17h.84l3.24,4.85v-4.85h.78v6.17h-.84l-3.24-4.85v4.85h-.78Zm-5.73,0v-6.17h4.46v.72h-3.64v1.9h3.41v.72h-3.41v2.1h3.79v.72h-4.6Zm-3.71,0v-5.45h-2.04v-.72h4.89v.72h-2.04v5.45h-.82Zm-6.8-3.45h1.75c.37,0,.66-.04.87-.12.21-.08.37-.2.48-.37.11-.17.16-.35.16-.55,0-.29-.1-.53-.32-.72-.21-.19-.54-.28-1-.28h-1.95v2.04Zm-.82,3.45v-6.17h2.74c.55,0,.97.06,1.25.17.29.11.51.31.69.59.17.28.26.59.26.93,0,.44-.14.81-.43,1.11-.28.3-.72.49-1.31.57.22.1.38.21.49.31.24.22.46.49.68.82l1.07,1.68h-1.02l-.82-1.28c-.24-.37-.43-.66-.59-.85-.16-.2-.29-.33-.42-.41-.12-.08-.25-.13-.37-.16-.09-.02-.24-.03-.45-.03h-.95v2.74h-.82Zm-4.67-2.53h2.1l-.64-1.71c-.19-.52-.34-.95-.44-1.29-.08.4-.2.8-.34,1.19l-.68,1.81Zm-1.78,2.53l2.37-6.17h.9l2.51,6.17h-.93l-.71-1.87h-2.6l-.67,1.87h-.87Zm-3.14-2.42v-.72h2.61v2.29c-.4.32-.81.56-1.24.72-.43.16-.87.24-1.31.24-.61,0-1.16-.13-1.65-.39-.49-.26-.87-.64-1.12-1.13-.25-.49-.38-1.04-.38-1.65s.12-1.16.38-1.68c.25-.52.61-.91,1.08-1.16.47-.25,1.01-.38,1.63-.38.45,0,.85.07,1.21.22.36.15.64.35.85.6.21.26.36.6.47,1.01l-.74.2c-.09-.31-.21-.56-.34-.74-.14-.18-.33-.32-.59-.43-.25-.11-.54-.16-.85-.16-.37,0-.69.06-.97.17-.27.11-.49.26-.66.45-.17.19-.3.39-.39.61-.16.38-.24.8-.24,1.24,0,.55.09,1.01.28,1.39.19.37.47.65.83.83.36.18.75.27,1.15.27.35,0,.7-.07,1.03-.21.34-.14.59-.28.76-.44v-1.16h-1.81Zm-7.4,4.23v-8.09h.66v8.09h-.66Zm-4.71-7.98h.82v3.57c0,.62-.07,1.11-.21,1.48-.14.36-.39.66-.76.89-.37.23-.85.34-1.44.34s-1.05-.1-1.42-.3c-.37-.2-.63-.49-.79-.87-.16-.38-.24-.89-.24-1.55v-3.57h.82v3.56c0,.54.05.93.15,1.19.1.25.27.45.51.59.24.14.54.21.89.21.6,0,1.02-.14,1.28-.41.25-.27.38-.8.38-1.57v-3.56Zm-8.7,3.64h2.1l-.64-1.71c-.19-.52-.34-.95-.44-1.29-.08.4-.2.8-.34,1.19l-.68,1.81Zm-1.78,2.53l2.37-6.17h.9l2.51,6.17h-.93l-.71-1.87h-2.6l-.67,1.87h-.87Zm-4.29-.72h1.54c.26,0,.45-.01.56-.03.19-.03.35-.09.47-.17.13-.08.23-.19.31-.34.08-.15.12-.32.12-.52,0-.23-.06-.43-.18-.6-.12-.17-.28-.29-.49-.36-.21-.07-.51-.1-.9-.1h-1.43v2.13Zm0-2.85h1.34c.36,0,.62-.02.78-.07.21-.06.37-.17.47-.31.1-.14.16-.32.16-.54,0-.21-.05-.39-.15-.54-.1-.16-.24-.26-.42-.32-.18-.06-.5-.09-.94-.09h-1.23v1.87Zm-.82,3.58v-6.17h2.32c.47,0,.85.06,1.14.19.28.12.51.32.67.58.16.26.24.53.24.81,0,.26-.07.51-.21.74-.14.23-.36.42-.65.56.37.11.66.3.86.56.2.26.3.57.3.93,0,.29-.06.56-.18.81-.12.25-.27.44-.45.57-.18.13-.4.24-.68.3-.27.07-.6.1-1,.1h-2.36Zm-6.2,0v-6.17h.84l3.24,4.85v-4.85h.78v6.17h-.84l-3.24-4.85v4.85h-.78Zm-5.73,0v-6.17h4.46v.72h-3.64v1.9h3.41v.72h-3.41v2.1h3.79v.72h-4.6Zm-6.04-1.98l.77-.07c.04.31.12.57.25.76.13.2.34.36.62.48.28.12.6.18.95.18.31,0,.59-.05.82-.14.24-.09.42-.22.53-.38.12-.16.18-.34.18-.53s-.06-.36-.17-.51c-.11-.14-.3-.26-.56-.36-.17-.06-.53-.16-1.1-.3-.57-.14-.96-.26-1.19-.39-.29-.15-.51-.35-.66-.58-.15-.23-.22-.49-.22-.77,0-.31.09-.61.27-.88.18-.27.43-.48.77-.62.34-.14.72-.21,1.13-.21.46,0,.86.07,1.21.22.35.15.62.36.81.65.19.29.29.61.3.97l-.78.06c-.04-.39-.18-.68-.43-.88-.24-.2-.6-.3-1.08-.3s-.86.09-1.08.27c-.23.18-.34.4-.34.66,0,.22.08.4.24.55.16.14.57.29,1.23.44.66.15,1.12.28,1.37.39.36.17.62.37.79.63.17.25.26.54.26.88s-.09.64-.28.93c-.19.29-.46.52-.81.68-.35.16-.75.24-1.19.24-.56,0-1.02-.08-1.4-.24-.38-.16-.67-.41-.89-.73-.22-.33-.33-.7-.34-1.11Zm-5.75,0l.77-.07c.04.31.12.57.25.76.13.2.34.36.62.48.28.12.6.18.95.18.31,0,.59-.05.82-.14.24-.09.42-.22.53-.38.12-.16.18-.34.18-.53s-.06-.36-.17-.51c-.11-.14-.3-.26-.56-.36-.17-.06-.53-.16-1.1-.3-.57-.14-.96-.26-1.19-.39-.29-.15-.51-.35-.66-.58-.15-.23-.22-.49-.22-.77,0-.31.09-.61.27-.88.18-.27.43-.48.77-.62.34-.14.72-.21,1.13-.21.46,0,.86.07,1.21.22.35.15.62.36.81.65.19.29.29.61.3.97l-.78.06c-.04-.39-.18-.68-.43-.88-.24-.2-.6-.3-1.08-.3s-.86.09-1.08.27c-.23.18-.34.4-.34.66,0,.22.08.4.24.55.16.14.57.29,1.23.44.66.15,1.12.28,1.37.39.36.17.62.37.79.63.17.25.26.54.26.88s-.09.64-.28.93c-.19.29-.46.52-.81.68-.35.16-.75.24-1.19.24-.56,0-1.02-.08-1.4-.24-.38-.16-.67-.41-.89-.73-.22-.33-.33-.7-.34-1.11Zm-4.38-.55h2.1l-.64-1.71c-.19-.52-.34-.95-.44-1.29-.08.4-.2.8-.34,1.19l-.68,1.81Zm-1.78,2.53l2.37-6.17h.9l2.51,6.17h-.93l-.71-1.87h-2.6l-.67,1.87h-.87Zm-4.71-3.45h1.75c.37,0,.66-.04.87-.12.21-.08.37-.2.48-.37.11-.17.16-.35.16-.55,0-.29-.1-.53-.32-.72-.21-.19-.54-.28-1-.28h-1.95v2.04Zm-.82,3.45v-6.17h2.74c.55,0,.97.06,1.25.17.29.11.51.31.69.59.17.28.26.59.26.93,0,.44-.14.81-.43,1.11-.28.3-.72.49-1.31.57.22.1.38.21.49.31.24.22.46.49.68.82l1.07,1.68h-1.02l-.82-1.28c-.24-.37-.43-.66-.59-.85-.16-.2-.29-.33-.42-.41-.12-.08-.25-.13-.37-.16-.09-.02-.24-.03-.45-.03h-.95v2.74h-.82Zm-3.71,0v-5.45h-2.04v-.72h4.89v.72h-2.03v5.45h-.82Zm-7.59-1.98l.77-.07c.04.31.12.57.25.76.13.2.34.36.62.48.28.12.6.18.95.18.31,0,.59-.05.82-.14.24-.09.42-.22.53-.38.12-.16.18-.34.18-.53s-.06-.36-.17-.51c-.11-.14-.3-.26-.56-.36-.17-.06-.53-.16-1.1-.3-.57-.14-.96-.26-1.19-.39-.29-.15-.51-.35-.66-.58-.15-.23-.22-.49-.22-.77,0-.31.09-.61.27-.88.18-.27.43-.48.77-.62.34-.14.72-.21,1.13-.21.46,0,.86.07,1.21.22.35.15.62.36.81.65.19.29.29.61.3.97l-.78.06c-.04-.39-.18-.68-.43-.88-.24-.2-.6-.3-1.08-.3s-.86.09-1.08.27c-.23.18-.34.4-.34.66,0,.22.08.4.24.55.16.14.57.29,1.23.44.66.15,1.12.28,1.37.39.36.17.62.37.79.63.17.25.26.54.26.88s-.09.64-.28.93c-.19.29-.46.52-.81.68s-.75.24-1.19.24c-.56,0-1.02-.08-1.4-.24-.38-.16-.67-.41-.89-.73-.22-.33-.33-.7-.34-1.11Z"></path></g></svg>